<svg width="947" height="1211" viewBox="0 0 947 1211" fill="none" xmlns="http://www.w3.org/2000/svg">
<path d="M494 0.5C494 90 450.306 133.257 392.5 138C295 146 254 81 157 93.5C79.4001 103.5 16.4999 185.833 6.99998 244.5C-36.0001 480 221 569.5 377.5 532.5C534 495.5 671 344 824 379.5C977 415 979 611 861.5 648C744 685 611 665.5 509 648C407 630.5 282.5 686 245 748C215.773 796.322 213.042 937.937 284.5 991C343.5 1034.81 524.228 1075.58 579.5 971C630.5 874.5 524.5 843 479.5 902C451.887 938.204 426 983.5 426 1208.5M426 1208.5L450 1184.5M426 1208.5L402 1184.5" stroke="#FFC46B" stroke-width="3"/>
</svg>
